<?xml version="1.0" standalone="no"?>
<!DOCTYPE svg PUBLIC "-//W3C//DTD SVG 20010904//EN"
 "http://www.w3.org/TR/2001/REC-SVG-20010904/DTD/svg10.dtd">
<svg version="1.0" xmlns="http://www.w3.org/2000/svg"
 width="38.000000pt" height="38.000000pt" viewBox="0 0 172.000000 172.000000"
 preserveAspectRatio="xMidYMid meet">
<metadata>
Created by Docfx
</metadata>
<g transform="translate(0.000000,172.000000) scale(0.100000,-0.100000)" fill="#555555" stroke="none">
<path d="M230 1359 c0 -18 11 -30 44 -48 80 -42 81 -45 81 -441 0 -400 -1
-404 -79 -436 -36 -15 -46 -24 -46 -43 0 -23 2 -24 61 -17 34 3 88 6 120 6
l59 0 0 495 0 495 -82 0 c-46 0 -100 3 -120 6 -35 6 -38 5 -38 -17z"/>
<path d="M1170 1228 c75 -104 110 -337 76 -508 -21 -100 -56 -178 -105 -233
l-36 -41 34 20 c75 43 160 133 198 212 37 75 38 78 38 191 -1 129 -18 191 -75
270 -28 38 -136 131 -153 131 -4 0 6 -19 23 -42z"/>
</g>
</svg>
